<?xml version="1.0" standalone="no"?>
<svg xmlns="http://www.w3.org/2000/svg" width="300" height="300"><defs><clipPath id="clip-path-dot-color"><rect x="6" y="76" width="7" height="7" transform="rotate(0,9.5,79.5)"/><rect x="6" y="83" width="7" height="7" transform="rotate(0,9.5,86.5)"/><rect x="6" y="90" width="7" height="7" transform="rotate(0,9.5,93.5)"/><rect x="6" y="97" width="7" height="7" transform="rotate(0,9.5,100.5)"/><rect x="6" y="104" width="7" height="7" transform="rotate(0,9.5,107.5)"/><rect x="6" y="111" width="7" height="7" transform="rotate(0,9.5,114.5)"/><rect x="6" y="118" width="7" height="7" transform="rotate(0,9.5,121.5)"/><rect x="6" y="125" width="7" height="7" transform="rotate(0,9.5,128.5)"/><rect x="6" y="132" width="7" height="7" transform="rotate(0,9.5,135.5)"/><rect x="6" y="160" width="7" height="7" transform="rotate(0,9.5,163.5)"/><rect x="6" y="167" width="7" height="7" transform="rotate(0,9.5,170.5)"/><rect x="6" y="174" width="7" height="7" transform="rotate(0,9.5,177.5)"/><rect x="6" y="181" width="7" height="7" transform="rotate(0,9.5,184.5)"/><rect x="6" y="202" width="7" height="7" transform="rotate(0,9.5,205.5)"/><rect x="6" y="209" width="7" height="7" transform="rotate(0,9.5,212.5)"/><rect x="6" y="216" width="7" height="7" transform="rotate(0,9.5,219.5)"/><rect x="6" y="230" width="7" height="7" transform="rotate(0,9.5,233.5)"/><rect x="13" y="76" width="7" height="7" transform="rotate(0,16.5,79.5)"/><rect x="13" y="90" width="7" height="7" transform="rotate(0,16.5,93.5)"/><rect x="13" y="118" width="7" height="7" transform="rotate(0,16.5,121.5)"/><rect x="13" y="139" width="7" height="7" transform="rotate(0,16.5,142.5)"/><rect x="13" y="153" width="7" height="7" transform="rotate(0,16.5,156.5)"/><rect x="13" y="167" width="7" height="7" transform="rotate(0,16.5,170.5)"/><rect x="13" y="174" width="7" height="7" transform="rotate(0,16.5,177.5)"/><rect x="13" y="181" width="7" height="7" transform="rotate(0,16.5,184.5)"/><rect x="13" y="188" width="7" height="7" transform="rotate(0,16.5,191.5)"/><rect x="13" y="209" width="7" height="7" transform="rotate(0,16.5,212.5)"/><rect x="13" y="223" width="7" height="7" transform="rotate(0,16.5,226.5)"/><rect x="13" y="230" width="7" height="7" transform="rotate(0,16.5,233.5)"/><rect x="20" y="62" width="7" height="7" transform="rotate(0,23.5,65.5)"/><rect x="20" y="69" width="7" height="7" transform="rotate(0,23.5,72.5)"/><rect x="20" y="76" width="7" height="7" transform="rotate(0,23.5,79.5)"/><rect x="20" y="90" width="7" height="7" transform="rotate(0,23.5,93.5)"/><rect x="20" y="104" width="7" height="7" transform="rotate(0,23.5,107.5)"/><rect x="20" y="139" width="7" height="7" transform="rotate(0,23.5,142.5)"/><rect x="20" y="146" width="7" height="7" transform="rotate(0,23.5,149.5)"/><rect x="20" y="160" width="7" height="7" transform="rotate(0,23.5,163.5)"/><rect x="20" y="174" width="7" height="7" transform="rotate(0,23.5,177.5)"/><rect x="20" y="188" width="7" height="7" transform="rotate(0,23.5,191.5)"/><rect x="20" y="195" width="7" height="7" transform="rotate(0,23.5,198.5)"/><rect x="20" y="223" width="7" height="7" transform="rotate(0,23.5,226.5)"/><rect x="27" y="69" width="7" height="7" transform="rotate(0,30.5,72.5)"/><rect x="27" y="76" width="7" height="7" transform="rotate(0,30.5,79.5)"/><rect x="27" y="90" width="7" height="7" transform="rotate(0,30.5,93.5)"/><rect x="27" y="97" width="7" height="7" transform="rotate(0,30.5,100.5)"/><rect x="27" y="104" width="7" height="7" transform="rotate(0,30.5,107.5)"/><rect x="27" y="118" width="7" height="7" transform="rotate(0,30.5,121.5)"/><rect x="27" y="125" width="7" height="7" transform="rotate(0,30.5,128.5)"/><rect x="27" y="146" width="7" height="7" transform="rotate(0,30.5,149.5)"/><rect x="27" y="195" width="7" height="7" transform="rotate(0,30.5,198.5)"/><rect x="27" y="202" width="7" height="7" transform="rotate(0,30.5,205.5)"/><rect x="27" y="209" width="7" height="7" transform="rotate(0,30.5,212.5)"/><rect x="27" y="216" width="7" height="7" transform="rotate(0,30.5,219.5)"/><rect x="34" y="62" width="7" height="7" transform="rotate(0,37.5,65.5)"/><rect x="34" y="69" width="7" height="7" transform="rotate(0,37.5,72.5)"/><rect x="34" y="76" width="7" height="7" transform="rotate(0,37.5,79.5)"/><rect x="34" y="90" width="7" height="7" transform="rotate(0,37.5,93.5)"/><rect x="34" y="104" width="7" height="7" transform="rotate(0,37.5,107.5)"/><rect x="34" y="111" width="7" height="7" transform="rotate(0,37.5,114.5)"/><rect x="34" y="125" width="7" height="7" transform="rotate(0,37.5,128.5)"/><rect x="34" y="132" width="7" height="7" transform="rotate(0,37.5,135.5)"/><rect x="34" y="139" width="7" height="7" transform="rotate(0,37.5,142.5)"/><rect x="34" y="174" width="7" height="7" transform="rotate(0,37.5,177.5)"/><rect x="34" y="181" width="7" height="7" transform="rotate(0,37.5,184.5)"/><rect x="34" y="195" width="7" height="7" transform="rotate(0,37.5,198.5)"/><rect x="34" y="216" width="7" height="7" transform="rotate(0,37.5,219.5)"/><rect x="41" y="62" width="7" height="7" transform="rotate(0,44.5,65.5)"/><rect x="41" y="76" width="7" height="7" transform="rotate(0,44.5,79.5)"/><rect x="41" y="83" width="7" height="7" transform="rotate(0,44.5,86.5)"/><rect x="41" y="90" width="7" height="7" transform="rotate(0,44.5,93.5)"/><rect x="41" y="97" width="7" height="7" transform="rotate(0,44.5,100.5)"/><rect x="41" y="104" width="7" height="7" transform="rotate(0,44.5,107.5)"/><rect x="41" y="111" width="7" height="7" transform="rotate(0,44.5,114.5)"/><rect x="41" y="118" width="7" height="7" transform="rotate(0,44.5,121.5)"/><rect x="41" y="125" width="7" height="7" transform="rotate(0,44.5,128.5)"/><rect x="41" y="153" width="7" height="7" transform="rotate(0,44.5,156.5)"/><rect x="41" y="188" width="7" height="7" transform="rotate(0,44.5,191.5)"/><rect x="41" y="209" width="7" height="7" transform="rotate(0,44.5,212.5)"/><rect x="41" y="223" width="7" height="7" transform="rotate(0,44.5,226.5)"/><rect x="41" y="230" width="7" height="7" transform="rotate(0,44.5,233.5)"/><rect x="48" y="62" width="7" height="7" transform="rotate(0,51.5,65.5)"/><rect x="48" y="76" width="7" height="7" transform="rotate(0,51.5,79.5)"/><rect x="48" y="90" width="7" height="7" transform="rotate(0,51.5,93.5)"/><rect x="48" y="104" width="7" height="7" transform="rotate(0,51.5,107.5)"/><rect x="48" y="118" width="7" height="7" transform="rotate(0,51.5,121.5)"/><rect x="48" y="132" width="7" height="7" transform="rotate(0,51.5,135.5)"/><rect x="48" y="146" width="7" height="7" transform="rotate(0,51.5,149.5)"/><rect x="48" y="160" width="7" height="7" transform="rotate(0,51.5,163.5)"/><rect x="48" y="174" width="7" height="7" transform="rotate(0,51.5,177.5)"/><rect x="48" y="188" width="7" height="7" transform="rotate(0,51.5,191.5)"/><rect x="48" y="202" width="7" height="7" transform="rotate(0,51.5,205.5)"/><rect x="48" y="216" width="7" height="7" transform="rotate(0,51.5,219.5)"/><rect x="48" y="230" width="7" height="7" transform="rotate(0,51.5,233.5)"/><rect x="55" y="76" width="7" height="7" transform="rotate(0,58.5,79.5)"/><rect x="55" y="83" width="7" height="7" transform="rotate(0,58.5,86.5)"/><rect x="55" y="97" width="7" height="7" transform="rotate(0,58.5,100.5)"/><rect x="55" y="125" width="7" height="7" transform="rotate(0,58.5,128.5)"/><rect x="55" y="167" width="7" height="7" transform="rotate(0,58.5,170.5)"/><rect x="55" y="174" width="7" height="7" transform="rotate(0,58.5,177.5)"/><rect x="55" y="195" width="7" height="7" transform="rotate(0,58.5,198.5)"/><rect x="55" y="209" width="7" height="7" transform="rotate(0,58.5,212.5)"/><rect x="55" y="216" width="7" height="7" transform="rotate(0,58.5,219.5)"/><rect x="55" y="230" width="7" height="7" transform="rotate(0,58.5,233.5)"/><rect x="62" y="13" width="7" height="7" transform="rotate(0,65.5,16.5)"/><rect x="62" y="34" width="7" height="7" transform="rotate(0,65.5,37.5)"/><rect x="62" y="48" width="7" height="7" transform="rotate(0,65.5,51.5)"/><rect x="62" y="62" width="7" height="7" transform="rotate(0,65.5,65.5)"/><rect x="62" y="69" width="7" height="7" transform="rotate(0,65.5,72.5)"/><rect x="62" y="118" width="7" height="7" transform="rotate(0,65.5,121.5)"/><rect x="62" y="125" width="7" height="7" transform="rotate(0,65.5,128.5)"/><rect x="62" y="139" width="7" height="7" transform="rotate(0,65.5,142.5)"/><rect x="62" y="160" width="7" height="7" transform="rotate(0,65.5,163.5)"/><rect x="62" y="167" width="7" height="7" transform="rotate(0,65.5,170.5)"/><rect x="62" y="174" width="7" height="7" transform="rotate(0,65.5,177.5)"/><rect x="62" y="188" width="7" height="7" transform="rotate(0,65.5,191.5)"/><rect x="62" y="195" width="7" height="7" transform="rotate(0,65.5,198.5)"/><rect x="62" y="209" width="7" height="7" transform="rotate(0,65.5,212.5)"/><rect x="62" y="223" width="7" height="7" transform="rotate(0,65.5,226.5)"/><rect x="62" y="230" width="7" height="7" transform="rotate(0,65.5,233.5)"/><rect x="62" y="237" width="7" height="7" transform="rotate(0,65.5,240.5)"/><rect x="62" y="251" width="7" height="7" transform="rotate(0,65.5,254.5)"/><rect x="62" y="258" width="7" height="7" transform="rotate(0,65.5,261.5)"/><rect x="62" y="272" width="7" height="7" transform="rotate(0,65.5,275.5)"/><rect x="69" y="6" width="7" height="7" transform="rotate(0,72.5,9.5)"/><rect x="69" y="34" width="7" height="7" transform="rotate(0,72.5,37.5)"/><rect x="69" y="55" width="7" height="7" transform="rotate(0,72.5,58.5)"/><rect x="69" y="62" width="7" height="7" transform="rotate(0,72.5,65.5)"/><rect x="69" y="76" width="7" height="7" transform="rotate(0,72.5,79.5)"/><rect x="69" y="83" width="7" height="7" transform="rotate(0,72.5,86.5)"/><rect x="69" y="97" width="7" height="7" transform="rotate(0,72.5,100.5)"/><rect x="69" y="104" width="7" height="7" transform="rotate(0,72.5,107.5)"/><rect x="69" y="118" width="7" height="7" transform="rotate(0,72.5,121.5)"/><rect x="69" y="132" width="7" height="7" transform="rotate(0,72.5,135.5)"/><rect x="69" y="153" width="7" height="7" transform="rotate(0,72.5,156.5)"/><rect x="69" y="160" width="7" height="7" transform="rotate(0,72.5,163.5)"/><rect x="69" y="167" width="7" height="7" transform="rotate(0,72.5,170.5)"/><rect x="69" y="188" width="7" height="7" transform="rotate(0,72.5,191.5)"/><rect x="69" y="195" width="7" height="7" transform="rotate(0,72.5,198.5)"/><rect x="69" y="202" width="7" height="7" transform="rotate(0,72.5,205.5)"/><rect x="69" y="209" width="7" height="7" transform="rotate(0,72.5,212.5)"/><rect x="69" y="216" width="7" height="7" transform="rotate(0,72.5,219.5)"/><rect x="69" y="244" width="7" height="7" transform="rotate(0,72.5,247.5)"/><rect x="69" y="258" width="7" height="7" transform="rotate(0,72.5,261.5)"/><rect x="69" y="265" width="7" height="7" transform="rotate(0,72.5,268.5)"/><rect x="69" y="286" width="7" height="7" transform="rotate(0,72.5,289.5)"/><rect x="76" y="20" width="7" height="7" transform="rotate(0,79.5,23.5)"/><rect x="76" y="34" width="7" height="7" transform="rotate(0,79.5,37.5)"/><rect x="76" y="41" width="7" height="7" transform="rotate(0,79.5,44.5)"/><rect x="76" y="48" width="7" height="7" transform="rotate(0,79.5,51.5)"/><rect x="76" y="55" width="7" height="7" transform="rotate(0,79.5,58.5)"/><rect x="76" y="76" width="7" height="7" transform="rotate(0,79.5,79.5)"/><rect x="76" y="83" width="7" height="7" transform="rotate(0,79.5,86.5)"/><rect x="76" y="132" width="7" height="7" transform="rotate(0,79.5,135.5)"/><rect x="76" y="146" width="7" height="7" transform="rotate(0,79.5,149.5)"/><rect x="76" y="153" width="7" height="7" transform="rotate(0,79.5,156.5)"/><rect x="76" y="160" width="7" height="7" transform="rotate(0,79.5,163.5)"/><rect x="76" y="188" width="7" height="7" transform="rotate(0,79.5,191.5)"/><rect x="76" y="195" width="7" height="7" transform="rotate(0,79.5,198.5)"/><rect x="76" y="209" width="7" height="7" transform="rotate(0,79.5,212.5)"/><rect x="76" y="230" width="7" height="7" transform="rotate(0,79.5,233.5)"/><rect x="76" y="237" width="7" height="7" transform="rotate(0,79.5,240.5)"/><rect x="76" y="251" width="7" height="7" transform="rotate(0,79.5,254.5)"/><rect x="76" y="258" width="7" height="7" transform="rotate(0,79.5,261.5)"/><rect x="76" y="279" width="7" height="7" transform="rotate(0,79.5,282.5)"/><rect x="76" y="286" width="7" height="7" transform="rotate(0,79.5,289.5)"/><rect x="83" y="6" width="7" height="7" transform="rotate(0,86.5,9.5)"/><rect x="83" y="13" width="7" height="7" transform="rotate(0,86.5,16.5)"/><rect x="83" y="20" width="7" height="7" transform="rotate(0,86.5,23.5)"/><rect x="83" y="27" width="7" height="7" transform="rotate(0,86.5,30.5)"/><rect x="83" y="34" width="7" height="7" transform="rotate(0,86.5,37.5)"/><rect x="83" y="41" width="7" height="7" transform="rotate(0,86.5,44.5)"/><rect x="83" y="76" width="7" height="7" transform="rotate(0,86.5,79.5)"/><rect x="83" y="83" width="7" height="7" transform="rotate(0,86.5,86.5)"/><rect x="83" y="90" width="7" height="7" transform="rotate(0,86.5,93.5)"/><rect x="83" y="97" width="7" height="7" transform="rotate(0,86.5,100.5)"/><rect x="83" y="125" width="7" height="7" transform="rotate(0,86.5,128.5)"/><rect x="83" y="132" width="7" height="7" transform="rotate(0,86.5,135.5)"/><rect x="83" y="139" width="7" height="7" transform="rotate(0,86.5,142.5)"/><rect x="83" y="146" width="7" height="7" transform="rotate(0,86.5,149.5)"/><rect x="83" y="153" width="7" height="7" transform="rotate(0,86.5,156.5)"/><rect x="83" y="160" width="7" height="7" transform="rotate(0,86.5,163.5)"/><rect x="83" y="188" width="7" height="7" transform="rotate(0,86.5,191.5)"/><rect x="83" y="195" width="7" height="7" transform="rotate(0,86.5,198.5)"/><rect x="83" y="209" width="7" height="7" transform="rotate(0,86.5,212.5)"/><rect x="83" y="216" width="7" height="7" transform="rotate(0,86.5,219.5)"/><rect x="83" y="223" width="7" height="7" transform="rotate(0,86.5,226.5)"/><rect x="83" y="230" width="7" height="7" transform="rotate(0,86.5,233.5)"/><rect x="83" y="244" width="7" height="7" transform="rotate(0,86.5,247.5)"/><rect x="83" y="258" width="7" height="7" transform="rotate(0,86.5,261.5)"/><rect x="83" y="265" width="7" height="7" transform="rotate(0,86.5,268.5)"/><rect x="83" y="286" width="7" height="7" transform="rotate(0,86.5,289.5)"/><rect x="90" y="6" width="7" height="7" transform="rotate(0,93.5,9.5)"/><rect x="90" y="20" width="7" height="7" transform="rotate(0,93.5,23.5)"/><rect x="90" y="27" width="7" height="7" transform="rotate(0,93.5,30.5)"/><rect x="90" y="41" width="7" height="7" transform="rotate(0,93.5,44.5)"/><rect x="90" y="48" width="7" height="7" transform="rotate(0,93.5,51.5)"/><rect x="90" y="55" width="7" height="7" transform="rotate(0,93.5,58.5)"/><rect x="90" y="69" width="7" height="7" transform="rotate(0,93.5,72.5)"/><rect x="90" y="76" width="7" height="7" transform="rotate(0,93.5,79.5)"/><rect x="90" y="83" width="7" height="7" transform="rotate(0,93.5,86.5)"/><rect x="90" y="90" width="7" height="7" transform="rotate(0,93.5,93.5)"/><rect x="90" y="97" width="7" height="7" transform="rotate(0,93.5,100.5)"/><rect x="90" y="111" width="7" height="7" transform="rotate(0,93.5,114.5)"/><rect x="90" y="125" width="7" height="7" transform="rotate(0,93.5,128.5)"/><rect x="90" y="132" width="7" height="7" transform="rotate(0,93.5,135.5)"/><rect x="90" y="209" width="7" height="7" transform="rotate(0,93.5,212.5)"/><rect x="90" y="237" width="7" height="7" transform="rotate(0,93.5,240.5)"/><rect x="90" y="251" width="7" height="7" transform="rotate(0,93.5,254.5)"/><rect x="90" y="279" width="7" height="7" transform="rotate(0,93.5,282.5)"/><rect x="97" y="13" width="7" height="7" transform="rotate(0,100.5,16.5)"/><rect x="97" y="20" width="7" height="7" transform="rotate(0,100.5,23.5)"/><rect x="97" y="55" width="7" height="7" transform="rotate(0,100.5,58.5)"/><rect x="97" y="69" width="7" height="7" transform="rotate(0,100.5,72.5)"/><rect x="97" y="83" width="7" height="7" transform="rotate(0,100.5,86.5)"/><rect x="97" y="90" width="7" height="7" transform="rotate(0,100.5,93.5)"/><rect x="97" y="97" width="7" height="7" transform="rotate(0,100.5,100.5)"/><rect x="97" y="104" width="7" height="7" transform="rotate(0,100.5,107.5)"/><rect x="97" y="111" width="7" height="7" transform="rotate(0,100.5,114.5)"/><rect x="97" y="118" width="7" height="7" transform="rotate(0,100.5,121.5)"/><rect x="97" y="125" width="7" height="7" transform="rotate(0,100.5,128.5)"/><rect x="97" y="132" width="7" height="7" transform="rotate(0,100.5,135.5)"/><rect x="97" y="139" width="7" height="7" transform="rotate(0,100.5,142.5)"/><rect x="97" y="146" width="7" height="7" transform="rotate(0,100.5,149.5)"/><rect x="97" y="160" width="7" height="7" transform="rotate(0,100.5,163.5)"/><rect x="97" y="174" width="7" height="7" transform="rotate(0,100.5,177.5)"/><rect x="97" y="181" width="7" height="7" transform="rotate(0,100.5,184.5)"/><rect x="97" y="188" width="7" height="7" transform="rotate(0,100.5,191.5)"/><rect x="97" y="202" width="7" height="7" transform="rotate(0,100.5,205.5)"/><rect x="97" y="209" width="7" height="7" transform="rotate(0,100.5,212.5)"/><rect x="97" y="216" width="7" height="7" transform="rotate(0,100.5,219.5)"/><rect x="97" y="223" width="7" height="7" transform="rotate(0,100.5,226.5)"/><rect x="97" y="230" width="7" height="7" transform="rotate(0,100.5,233.5)"/><rect x="97" y="244" width="7" height="7" transform="rotate(0,100.5,247.5)"/><rect x="97" y="251" width="7" height="7" transform="rotate(0,100.5,254.5)"/><rect x="97" y="258" width="7" height="7" transform="rotate(0,100.5,261.5)"/><rect x="97" y="265" width="7" height="7" transform="rotate(0,100.5,268.5)"/><rect x="97" y="272" width="7" height="7" transform="rotate(0,100.5,275.5)"/><rect x="97" y="279" width="7" height="7" transform="rotate(0,100.5,282.5)"/><rect x="97" y="286" width="7" height="7" transform="rotate(0,100.5,289.5)"/><rect x="104" y="13" width="7" height="7" transform="rotate(0,107.5,16.5)"/><rect x="104" y="20" width="7" height="7" transform="rotate(0,107.5,23.5)"/><rect x="104" y="34" width="7" height="7" transform="rotate(0,107.5,37.5)"/><rect x="104" y="41" width="7" height="7" transform="rotate(0,107.5,44.5)"/><rect x="104" y="48" width="7" height="7" transform="rotate(0,107.5,51.5)"/><rect x="104" y="62" width="7" height="7" transform="rotate(0,107.5,65.5)"/><rect x="104" y="83" width="7" height="7" transform="rotate(0,107.5,86.5)"/><rect x="104" y="111" width="7" height="7" transform="rotate(0,107.5,114.5)"/><rect x="104" y="118" width="7" height="7" transform="rotate(0,107.5,121.5)"/><rect x="104" y="125" width="7" height="7" transform="rotate(0,107.5,128.5)"/><rect x="104" y="146" width="7" height="7" transform="rotate(0,107.5,149.5)"/><rect x="104" y="160" width="7" height="7" transform="rotate(0,107.5,163.5)"/><rect x="104" y="167" width="7" height="7" transform="rotate(0,107.5,170.5)"/><rect x="104" y="174" width="7" height="7" transform="rotate(0,107.5,177.5)"/><rect x="104" y="181" width="7" height="7" transform="rotate(0,107.5,184.5)"/><rect x="104" y="202" width="7" height="7" transform="rotate(0,107.5,205.5)"/><rect x="104" y="216" width="7" height="7" transform="rotate(0,107.5,219.5)"/><rect x="104" y="230" width="7" height="7" transform="rotate(0,107.5,233.5)"/><rect x="104" y="237" width="7" height="7" transform="rotate(0,107.5,240.5)"/><rect x="104" y="244" width="7" height="7" transform="rotate(0,107.5,247.5)"/><rect x="104" y="251" width="7" height="7" transform="rotate(0,107.5,254.5)"/><rect x="104" y="265" width="7" height="7" transform="rotate(0,107.5,268.5)"/><rect x="104" y="272" width="7" height="7" transform="rotate(0,107.5,275.5)"/><rect x="104" y="286" width="7" height="7" transform="rotate(0,107.5,289.5)"/><rect x="111" y="6" width="7" height="7" transform="rotate(0,114.5,9.5)"/><rect x="111" y="20" width="7" height="7" transform="rotate(0,114.5,23.5)"/><rect x="111" y="34" width="7" height="7" transform="rotate(0,114.5,37.5)"/><rect x="111" y="62" width="7" height="7" transform="rotate(0,114.5,65.5)"/><rect x="111" y="104" width="7" height="7" transform="rotate(0,114.5,107.5)"/><rect x="111" y="139" width="7" height="7" transform="rotate(0,114.5,142.5)"/><rect x="111" y="160" width="7" height="7" transform="rotate(0,114.5,163.5)"/><rect x="111" y="167" width="7" height="7" transform="rotate(0,114.5,170.5)"/><rect x="111" y="209" width="7" height="7" transform="rotate(0,114.5,212.5)"/><rect x="111" y="216" width="7" height="7" transform="rotate(0,114.5,219.5)"/><rect x="111" y="251" width="7" height="7" transform="rotate(0,114.5,254.5)"/><rect x="111" y="265" width="7" height="7" transform="rotate(0,114.5,268.5)"/><rect x="111" y="286" width="7" height="7" transform="rotate(0,114.5,289.5)"/><rect x="118" y="34" width="7" height="7" transform="rotate(0,121.5,37.5)"/><rect x="118" y="41" width="7" height="7" transform="rotate(0,121.5,44.5)"/><rect x="118" y="48" width="7" height="7" transform="rotate(0,121.5,51.5)"/><rect x="118" y="62" width="7" height="7" transform="rotate(0,121.5,65.5)"/><rect x="118" y="69" width="7" height="7" transform="rotate(0,121.5,72.5)"/><rect x="118" y="76" width="7" height="7" transform="rotate(0,121.5,79.5)"/><rect x="118" y="97" width="7" height="7" transform="rotate(0,121.5,100.5)"/><rect x="118" y="104" width="7" height="7" transform="rotate(0,121.5,107.5)"/><rect x="118" y="118" width="7" height="7" transform="rotate(0,121.5,121.5)"/><rect x="118" y="174" width="7" height="7" transform="rotate(0,121.5,177.5)"/><rect x="118" y="188" width="7" height="7" transform="rotate(0,121.5,191.5)"/><rect x="118" y="195" width="7" height="7" transform="rotate(0,121.5,198.5)"/><rect x="118" y="202" width="7" height="7" transform="rotate(0,121.5,205.5)"/><rect x="118" y="223" width="7" height="7" transform="rotate(0,121.5,226.5)"/><rect x="118" y="230" width="7" height="7" transform="rotate(0,121.5,233.5)"/><rect x="118" y="251" width="7" height="7" transform="rotate(0,121.5,254.5)"/><rect x="118" y="265" width="7" height="7" transform="rotate(0,121.5,268.5)"/><rect x="118" y="286" width="7" height="7" transform="rotate(0,121.5,289.5)"/><rect x="125" y="13" width="7" height="7" transform="rotate(0,128.5,16.5)"/><rect x="125" y="20" width="7" height="7" transform="rotate(0,128.5,23.5)"/><rect x="125" y="34" width="7" height="7" transform="rotate(0,128.5,37.5)"/><rect x="125" y="41" width="7" height="7" transform="rotate(0,128.5,44.5)"/><rect x="125" y="62" width="7" height="7" transform="rotate(0,128.5,65.5)"/><rect x="125" y="69" width="7" height="7" transform="rotate(0,128.5,72.5)"/><rect x="125" y="83" width="7" height="7" transform="rotate(0,128.5,86.5)"/><rect x="125" y="90" width="7" height="7" transform="rotate(0,128.5,93.5)"/><rect x="125" y="111" width="7" height="7" transform="rotate(0,128.5,114.5)"/><rect x="125" y="125" width="7" height="7" transform="rotate(0,128.5,128.5)"/><rect x="125" y="132" width="7" height="7" transform="rotate(0,128.5,135.5)"/><rect x="125" y="139" width="7" height="7" transform="rotate(0,128.5,142.5)"/><rect x="125" y="153" width="7" height="7" transform="rotate(0,128.5,156.5)"/><rect x="125" y="160" width="7" height="7" transform="rotate(0,128.5,163.5)"/><rect x="125" y="167" width="7" height="7" transform="rotate(0,128.5,170.5)"/><rect x="125" y="188" width="7" height="7" transform="rotate(0,128.5,191.5)"/><rect x="125" y="195" width="7" height="7" transform="rotate(0,128.5,198.5)"/><rect x="125" y="202" width="7" height="7" transform="rotate(0,128.5,205.5)"/><rect x="125" y="216" width="7" height="7" transform="rotate(0,128.5,219.5)"/><rect x="125" y="237" width="7" height="7" transform="rotate(0,128.5,240.5)"/><rect x="125" y="244" width="7" height="7" transform="rotate(0,128.5,247.5)"/><rect x="125" y="251" width="7" height="7" transform="rotate(0,128.5,254.5)"/><rect x="125" y="258" width="7" height="7" transform="rotate(0,128.5,261.5)"/><rect x="125" y="272" width="7" height="7" transform="rotate(0,128.5,275.5)"/><rect x="125" y="286" width="7" height="7" transform="rotate(0,128.5,289.5)"/><rect x="132" y="13" width="7" height="7" transform="rotate(0,135.5,16.5)"/><rect x="132" y="34" width="7" height="7" transform="rotate(0,135.5,37.5)"/><rect x="132" y="41" width="7" height="7" transform="rotate(0,135.5,44.5)"/><rect x="132" y="48" width="7" height="7" transform="rotate(0,135.5,51.5)"/><rect x="132" y="62" width="7" height="7" transform="rotate(0,135.5,65.5)"/><rect x="132" y="69" width="7" height="7" transform="rotate(0,135.5,72.5)"/><rect x="132" y="83" width="7" height="7" transform="rotate(0,135.5,86.5)"/><rect x="132" y="90" width="7" height="7" transform="rotate(0,135.5,93.5)"/><rect x="132" y="104" width="7" height="7" transform="rotate(0,135.5,107.5)"/><rect x="132" y="111" width="7" height="7" transform="rotate(0,135.5,114.5)"/><rect x="132" y="118" width="7" height="7" transform="rotate(0,135.5,121.5)"/><rect x="132" y="125" width="7" height="7" transform="rotate(0,135.5,128.5)"/><rect x="132" y="139" width="7" height="7" transform="rotate(0,135.5,142.5)"/><rect x="132" y="160" width="7" height="7" transform="rotate(0,135.5,163.5)"/><rect x="132" y="167" width="7" height="7" transform="rotate(0,135.5,170.5)"/><rect x="132" y="181" width="7" height="7" transform="rotate(0,135.5,184.5)"/><rect x="132" y="188" width="7" height="7" transform="rotate(0,135.5,191.5)"/><rect x="132" y="195" width="7" height="7" transform="rotate(0,135.5,198.5)"/><rect x="132" y="209" width="7" height="7" transform="rotate(0,135.5,212.5)"/><rect x="132" y="230" width="7" height="7" transform="rotate(0,135.5,233.5)"/><rect x="132" y="244" width="7" height="7" transform="rotate(0,135.5,247.5)"/><rect x="132" y="251" width="7" height="7" transform="rotate(0,135.5,254.5)"/><rect x="132" y="286" width="7" height="7" transform="rotate(0,135.5,289.5)"/><rect x="139" y="6" width="7" height="7" transform="rotate(0,142.5,9.5)"/><rect x="139" y="13" width="7" height="7" transform="rotate(0,142.5,16.5)"/><rect x="139" y="20" width="7" height="7" transform="rotate(0,142.5,23.5)"/><rect x="139" y="27" width="7" height="7" transform="rotate(0,142.5,30.5)"/><rect x="139" y="41" width="7" height="7" transform="rotate(0,142.5,44.5)"/><rect x="139" y="55" width="7" height="7" transform="rotate(0,142.5,58.5)"/><rect x="139" y="62" width="7" height="7" transform="rotate(0,142.5,65.5)"/><rect x="139" y="76" width="7" height="7" transform="rotate(0,142.5,79.5)"/><rect x="139" y="97" width="7" height="7" transform="rotate(0,142.5,100.5)"/><rect x="139" y="118" width="7" height="7" transform="rotate(0,142.5,121.5)"/><rect x="139" y="146" width="7" height="7" transform="rotate(0,142.5,149.5)"/><rect x="139" y="153" width="7" height="7" transform="rotate(0,142.5,156.5)"/><rect x="139" y="160" width="7" height="7" transform="rotate(0,142.5,163.5)"/><rect x="139" y="181" width="7" height="7" transform="rotate(0,142.5,184.5)"/><rect x="139" y="195" width="7" height="7" transform="rotate(0,142.5,198.5)"/><rect x="139" y="209" width="7" height="7" transform="rotate(0,142.5,212.5)"/><rect x="139" y="216" width="7" height="7" transform="rotate(0,142.5,219.5)"/><rect x="139" y="244" width="7" height="7" transform="rotate(0,142.5,247.5)"/><rect x="139" y="251" width="7" height="7" transform="rotate(0,142.5,254.5)"/><rect x="139" y="265" width="7" height="7" transform="rotate(0,142.5,268.5)"/><rect x="146" y="20" width="7" height="7" transform="rotate(0,149.5,23.5)"/><rect x="146" y="27" width="7" height="7" transform="rotate(0,149.5,30.5)"/><rect x="146" y="48" width="7" height="7" transform="rotate(0,149.5,51.5)"/><rect x="146" y="55" width="7" height="7" transform="rotate(0,149.5,58.5)"/><rect x="146" y="62" width="7" height="7" transform="rotate(0,149.5,65.5)"/><rect x="146" y="90" width="7" height="7" transform="rotate(0,149.5,93.5)"/><rect x="146" y="97" width="7" height="7" transform="rotate(0,149.5,100.5)"/><rect x="146" y="104" width="7" height="7" transform="rotate(0,149.5,107.5)"/><rect x="146" y="111" width="7" height="7" transform="rotate(0,149.5,114.5)"/><rect x="146" y="125" width="7" height="7" transform="rotate(0,149.5,128.5)"/><rect x="146" y="132" width="7" height="7" transform="rotate(0,149.5,135.5)"/><rect x="146" y="153" width="7" height="7" transform="rotate(0,149.5,156.5)"/><rect x="146" y="160" width="7" height="7" transform="rotate(0,149.5,163.5)"/><rect x="146" y="181" width="7" height="7" transform="rotate(0,149.5,184.5)"/><rect x="146" y="216" width="7" height="7" transform="rotate(0,149.5,219.5)"/><rect x="146" y="223" width="7" height="7" transform="rotate(0,149.5,226.5)"/><rect x="146" y="237" width="7" height="7" transform="rotate(0,149.5,240.5)"/><rect x="146" y="265" width="7" height="7" transform="rotate(0,149.5,268.5)"/><rect x="146" y="279" width="7" height="7" transform="rotate(0,149.5,282.5)"/><rect x="146" y="286" width="7" height="7" transform="rotate(0,149.5,289.5)"/><rect x="153" y="6" width="7" height="7" transform="rotate(0,156.5,9.5)"/><rect x="153" y="27" width="7" height="7" transform="rotate(0,156.5,30.5)"/><rect x="153" y="55" width="7" height="7" transform="rotate(0,156.5,58.5)"/><rect x="153" y="62" width="7" height="7" transform="rotate(0,156.5,65.5)"/><rect x="153" y="76" width="7" height="7" transform="rotate(0,156.5,79.5)"/><rect x="153" y="83" width="7" height="7" transform="rotate(0,156.5,86.5)"/><rect x="153" y="111" width="7" height="7" transform="rotate(0,156.5,114.5)"/><rect x="153" y="118" width="7" height="7" transform="rotate(0,156.5,121.5)"/><rect x="153" y="125" width="7" height="7" transform="rotate(0,156.5,128.5)"/><rect x="153" y="139" width="7" height="7" transform="rotate(0,156.5,142.5)"/><rect x="153" y="153" width="7" height="7" transform="rotate(0,156.5,156.5)"/><rect x="153" y="167" width="7" height="7" transform="rotate(0,156.5,170.5)"/><rect x="153" y="188" width="7" height="7" transform="rotate(0,156.5,191.5)"/><rect x="153" y="195" width="7" height="7" transform="rotate(0,156.5,198.5)"/><rect x="153" y="202" width="7" height="7" transform="rotate(0,156.5,205.5)"/><rect x="153" y="209" width="7" height="7" transform="rotate(0,156.5,212.5)"/><rect x="153" y="237" width="7" height="7" transform="rotate(0,156.5,240.5)"/><rect x="153" y="244" width="7" height="7" transform="rotate(0,156.5,247.5)"/><rect x="153" y="251" width="7" height="7" transform="rotate(0,156.5,254.5)"/><rect x="153" y="258" width="7" height="7" transform="rotate(0,156.5,261.5)"/><rect x="153" y="286" width="7" height="7" transform="rotate(0,156.5,289.5)"/><rect x="160" y="6" width="7" height="7" transform="rotate(0,163.5,9.5)"/><rect x="160" y="13" width="7" height="7" transform="rotate(0,163.5,16.5)"/><rect x="160" y="20" width="7" height="7" transform="rotate(0,163.5,23.5)"/><rect x="160" y="27" width="7" height="7" transform="rotate(0,163.5,30.5)"/><rect x="160" y="34" width="7" height="7" transform="rotate(0,163.5,37.5)"/><rect x="160" y="41" width="7" height="7" transform="rotate(0,163.5,44.5)"/><rect x="160" y="48" width="7" height="7" transform="rotate(0,163.5,51.5)"/><rect x="160" y="62" width="7" height="7" transform="rotate(0,163.5,65.5)"/><rect x="160" y="69" width="7" height="7" transform="rotate(0,163.5,72.5)"/><rect x="160" y="76" width="7" height="7" transform="rotate(0,163.5,79.5)"/><rect x="160" y="90" width="7" height="7" transform="rotate(0,163.5,93.5)"/><rect x="160" y="104" width="7" height="7" transform="rotate(0,163.5,107.5)"/><rect x="160" y="111" width="7" height="7" transform="rotate(0,163.5,114.5)"/><rect x="160" y="125" width="7" height="7" transform="rotate(0,163.5,128.5)"/><rect x="160" y="132" width="7" height="7" transform="rotate(0,163.5,135.5)"/><rect x="160" y="139" width="7" height="7" transform="rotate(0,163.5,142.5)"/><rect x="160" y="146" width="7" height="7" transform="rotate(0,163.5,149.5)"/><rect x="160" y="167" width="7" height="7" transform="rotate(0,163.5,170.5)"/><rect x="160" y="181" width="7" height="7" transform="rotate(0,163.5,184.5)"/><rect x="160" y="188" width="7" height="7" transform="rotate(0,163.5,191.5)"/><rect x="160" y="195" width="7" height="7" transform="rotate(0,163.5,198.5)"/><rect x="160" y="209" width="7" height="7" transform="rotate(0,163.5,212.5)"/><rect x="160" y="230" width="7" height="7" transform="rotate(0,163.5,233.5)"/><rect x="160" y="265" width="7" height="7" transform="rotate(0,163.5,268.5)"/><rect x="160" y="272" width="7" height="7" transform="rotate(0,163.5,275.5)"/><rect x="160" y="286" width="7" height="7" transform="rotate(0,163.5,289.5)"/><rect x="167" y="6" width="7" height="7" transform="rotate(0,170.5,9.5)"/><rect x="167" y="13" width="7" height="7" transform="rotate(0,170.5,16.5)"/><rect x="167" y="20" width="7" height="7" transform="rotate(0,170.5,23.5)"/><rect x="167" y="34" width="7" height="7" transform="rotate(0,170.5,37.5)"/><rect x="167" y="76" width="7" height="7" transform="rotate(0,170.5,79.5)"/><rect x="167" y="83" width="7" height="7" transform="rotate(0,170.5,86.5)"/><rect x="167" y="97" width="7" height="7" transform="rotate(0,170.5,100.5)"/><rect x="167" y="104" width="7" height="7" transform="rotate(0,170.5,107.5)"/><rect x="167" y="118" width="7" height="7" transform="rotate(0,170.5,121.5)"/><rect x="167" y="153" width="7" height="7" transform="rotate(0,170.5,156.5)"/><rect x="167" y="160" width="7" height="7" transform="rotate(0,170.5,163.5)"/><rect x="167" y="167" width="7" height="7" transform="rotate(0,170.5,170.5)"/><rect x="167" y="174" width="7" height="7" transform="rotate(0,170.5,177.5)"/><rect x="167" y="195" width="7" height="7" transform="rotate(0,170.5,198.5)"/><rect x="167" y="202" width="7" height="7" transform="rotate(0,170.5,205.5)"/><rect x="167" y="209" width="7" height="7" transform="rotate(0,170.5,212.5)"/><rect x="167" y="216" width="7" height="7" transform="rotate(0,170.5,219.5)"/><rect x="167" y="244" width="7" height="7" transform="rotate(0,170.5,247.5)"/><rect x="167" y="251" width="7" height="7" transform="rotate(0,170.5,254.5)"/><rect x="167" y="265" width="7" height="7" transform="rotate(0,170.5,268.5)"/><rect x="167" y="279" width="7" height="7" transform="rotate(0,170.5,282.5)"/><rect x="174" y="6" width="7" height="7" transform="rotate(0,177.5,9.5)"/><rect x="174" y="13" width="7" height="7" transform="rotate(0,177.5,16.5)"/><rect x="174" y="34" width="7" height="7" transform="rotate(0,177.5,37.5)"/><rect x="174" y="48" width="7" height="7" transform="rotate(0,177.5,51.5)"/><rect x="174" y="55" width="7" height="7" transform="rotate(0,177.5,58.5)"/><rect x="174" y="62" width="7" height="7" transform="rotate(0,177.5,65.5)"/><rect x="174" y="69" width="7" height="7" transform="rotate(0,177.5,72.5)"/><rect x="174" y="76" width="7" height="7" transform="rotate(0,177.5,79.5)"/><rect x="174" y="97" width="7" height="7" transform="rotate(0,177.5,100.5)"/><rect x="174" y="104" width="7" height="7" transform="rotate(0,177.5,107.5)"/><rect x="174" y="125" width="7" height="7" transform="rotate(0,177.5,128.5)"/><rect x="174" y="132" width="7" height="7" transform="rotate(0,177.5,135.5)"/><rect x="174" y="139" width="7" height="7" transform="rotate(0,177.5,142.5)"/><rect x="174" y="146" width="7" height="7" transform="rotate(0,177.5,149.5)"/><rect x="174" y="160" width="7" height="7" transform="rotate(0,177.5,163.5)"/><rect x="174" y="174" width="7" height="7" transform="rotate(0,177.5,177.5)"/><rect x="174" y="202" width="7" height="7" transform="rotate(0,177.5,205.5)"/><rect x="174" y="209" width="7" height="7" transform="rotate(0,177.5,212.5)"/><rect x="174" y="223" width="7" height="7" transform="rotate(0,177.5,226.5)"/><rect x="174" y="230" width="7" height="7" transform="rotate(0,177.5,233.5)"/><rect x="174" y="237" width="7" height="7" transform="rotate(0,177.5,240.5)"/><rect x="174" y="265" width="7" height="7" transform="rotate(0,177.5,268.5)"/><rect x="174" y="279" width="7" height="7" transform="rotate(0,177.5,282.5)"/><rect x="174" y="286" width="7" height="7" transform="rotate(0,177.5,289.5)"/><rect x="181" y="13" width="7" height="7" transform="rotate(0,184.5,16.5)"/><rect x="181" y="20" width="7" height="7" transform="rotate(0,184.5,23.5)"/><rect x="181" y="27" width="7" height="7" transform="rotate(0,184.5,30.5)"/><rect x="181" y="34" width="7" height="7" transform="rotate(0,184.5,37.5)"/><rect x="181" y="41" width="7" height="7" transform="rotate(0,184.5,44.5)"/><rect x="181" y="76" width="7" height="7" transform="rotate(0,184.5,79.5)"/><rect x="181" y="97" width="7" height="7" transform="rotate(0,184.5,100.5)"/><rect x="181" y="104" width="7" height="7" transform="rotate(0,184.5,107.5)"/><rect x="181" y="111" width="7" height="7" transform="rotate(0,184.5,114.5)"/><rect x="181" y="118" width="7" height="7" transform="rotate(0,184.5,121.5)"/><rect x="181" y="132" width="7" height="7" transform="rotate(0,184.5,135.5)"/><rect x="181" y="153" width="7" height="7" transform="rotate(0,184.5,156.5)"/><rect x="181" y="167" width="7" height="7" transform="rotate(0,184.5,170.5)"/><rect x="181" y="188" width="7" height="7" transform="rotate(0,184.5,191.5)"/><rect x="181" y="195" width="7" height="7" transform="rotate(0,184.5,198.5)"/><rect x="181" y="202" width="7" height="7" transform="rotate(0,184.5,205.5)"/><rect x="181" y="209" width="7" height="7" transform="rotate(0,184.5,212.5)"/><rect x="181" y="230" width="7" height="7" transform="rotate(0,184.5,233.5)"/><rect x="181" y="244" width="7" height="7" transform="rotate(0,184.5,247.5)"/><rect x="181" y="251" width="7" height="7" transform="rotate(0,184.5,254.5)"/><rect x="181" y="258" width="7" height="7" transform="rotate(0,184.5,261.5)"/><rect x="181" y="272" width="7" height="7" transform="rotate(0,184.5,275.5)"/><rect x="181" y="286" width="7" height="7" transform="rotate(0,184.5,289.5)"/><rect x="188" y="34" width="7" height="7" transform="rotate(0,191.5,37.5)"/><rect x="188" y="41" width="7" height="7" transform="rotate(0,191.5,44.5)"/><rect x="188" y="48" width="7" height="7" transform="rotate(0,191.5,51.5)"/><rect x="188" y="55" width="7" height="7" transform="rotate(0,191.5,58.5)"/><rect x="188" y="62" width="7" height="7" transform="rotate(0,191.5,65.5)"/><rect x="188" y="76" width="7" height="7" transform="rotate(0,191.5,79.5)"/><rect x="188" y="97" width="7" height="7" transform="rotate(0,191.5,100.5)"/><rect x="188" y="118" width="7" height="7" transform="rotate(0,191.5,121.5)"/><rect x="188" y="125" width="7" height="7" transform="rotate(0,191.5,128.5)"/><rect x="188" y="139" width="7" height="7" transform="rotate(0,191.5,142.5)"/><rect x="188" y="160" width="7" height="7" transform="rotate(0,191.5,163.5)"/><rect x="188" y="167" width="7" height="7" transform="rotate(0,191.5,170.5)"/><rect x="188" y="174" width="7" height="7" transform="rotate(0,191.5,177.5)"/><rect x="188" y="181" width="7" height="7" transform="rotate(0,191.5,184.5)"/><rect x="188" y="188" width="7" height="7" transform="rotate(0,191.5,191.5)"/><rect x="188" y="195" width="7" height="7" transform="rotate(0,191.5,198.5)"/><rect x="188" y="202" width="7" height="7" transform="rotate(0,191.5,205.5)"/><rect x="188" y="216" width="7" height="7" transform="rotate(0,191.5,219.5)"/><rect x="188" y="230" width="7" height="7" transform="rotate(0,191.5,233.5)"/><rect x="188" y="258" width="7" height="7" transform="rotate(0,191.5,261.5)"/><rect x="188" y="286" width="7" height="7" transform="rotate(0,191.5,289.5)"/><rect x="195" y="6" width="7" height="7" transform="rotate(0,198.5,9.5)"/><rect x="195" y="13" width="7" height="7" transform="rotate(0,198.5,16.5)"/><rect x="195" y="27" width="7" height="7" transform="rotate(0,198.5,30.5)"/><rect x="195" y="34" width="7" height="7" transform="rotate(0,198.5,37.5)"/><rect x="195" y="41" width="7" height="7" transform="rotate(0,198.5,44.5)"/><rect x="195" y="55" width="7" height="7" transform="rotate(0,198.5,58.5)"/><rect x="195" y="62" width="7" height="7" transform="rotate(0,198.5,65.5)"/><rect x="195" y="111" width="7" height="7" transform="rotate(0,198.5,114.5)"/><rect x="195" y="118" width="7" height="7" transform="rotate(0,198.5,121.5)"/><rect x="195" y="125" width="7" height="7" transform="rotate(0,198.5,128.5)"/><rect x="195" y="132" width="7" height="7" transform="rotate(0,198.5,135.5)"/><rect x="195" y="139" width="7" height="7" transform="rotate(0,198.5,142.5)"/><rect x="195" y="146" width="7" height="7" transform="rotate(0,198.5,149.5)"/><rect x="195" y="153" width="7" height="7" transform="rotate(0,198.5,156.5)"/><rect x="195" y="174" width="7" height="7" transform="rotate(0,198.5,177.5)"/><rect x="195" y="195" width="7" height="7" transform="rotate(0,198.5,198.5)"/><rect x="195" y="202" width="7" height="7" transform="rotate(0,198.5,205.5)"/><rect x="195" y="209" width="7" height="7" transform="rotate(0,198.5,212.5)"/><rect x="195" y="216" width="7" height="7" transform="rotate(0,198.5,219.5)"/><rect x="195" y="223" width="7" height="7" transform="rotate(0,198.5,226.5)"/><rect x="195" y="230" width="7" height="7" transform="rotate(0,198.5,233.5)"/><rect x="195" y="237" width="7" height="7" transform="rotate(0,198.5,240.5)"/><rect x="195" y="258" width="7" height="7" transform="rotate(0,198.5,261.5)"/><rect x="195" y="265" width="7" height="7" transform="rotate(0,198.5,268.5)"/><rect x="195" y="286" width="7" height="7" transform="rotate(0,198.5,289.5)"/><rect x="202" y="13" width="7" height="7" transform="rotate(0,205.5,16.5)"/><rect x="202" y="20" width="7" height="7" transform="rotate(0,205.5,23.5)"/><rect x="202" y="41" width="7" height="7" transform="rotate(0,205.5,44.5)"/><rect x="202" y="48" width="7" height="7" transform="rotate(0,205.5,51.5)"/><rect x="202" y="55" width="7" height="7" transform="rotate(0,205.5,58.5)"/><rect x="202" y="62" width="7" height="7" transform="rotate(0,205.5,65.5)"/><rect x="202" y="69" width="7" height="7" transform="rotate(0,205.5,72.5)"/><rect x="202" y="104" width="7" height="7" transform="rotate(0,205.5,107.5)"/><rect x="202" y="118" width="7" height="7" transform="rotate(0,205.5,121.5)"/><rect x="202" y="132" width="7" height="7" transform="rotate(0,205.5,135.5)"/><rect x="202" y="167" width="7" height="7" transform="rotate(0,205.5,170.5)"/><rect x="202" y="174" width="7" height="7" transform="rotate(0,205.5,177.5)"/><rect x="202" y="195" width="7" height="7" transform="rotate(0,205.5,198.5)"/><rect x="202" y="202" width="7" height="7" transform="rotate(0,205.5,205.5)"/><rect x="202" y="209" width="7" height="7" transform="rotate(0,205.5,212.5)"/><rect x="202" y="230" width="7" height="7" transform="rotate(0,205.5,233.5)"/><rect x="202" y="251" width="7" height="7" transform="rotate(0,205.5,254.5)"/><rect x="202" y="279" width="7" height="7" transform="rotate(0,205.5,282.5)"/><rect x="209" y="6" width="7" height="7" transform="rotate(0,212.5,9.5)"/><rect x="209" y="20" width="7" height="7" transform="rotate(0,212.5,23.5)"/><rect x="209" y="27" width="7" height="7" transform="rotate(0,212.5,30.5)"/><rect x="209" y="34" width="7" height="7" transform="rotate(0,212.5,37.5)"/><rect x="209" y="62" width="7" height="7" transform="rotate(0,212.5,65.5)"/><rect x="209" y="90" width="7" height="7" transform="rotate(0,212.5,93.5)"/><rect x="209" y="97" width="7" height="7" transform="rotate(0,212.5,100.5)"/><rect x="209" y="104" width="7" height="7" transform="rotate(0,212.5,107.5)"/><rect x="209" y="118" width="7" height="7" transform="rotate(0,212.5,121.5)"/><rect x="209" y="139" width="7" height="7" transform="rotate(0,212.5,142.5)"/><rect x="209" y="146" width="7" height="7" transform="rotate(0,212.5,149.5)"/><rect x="209" y="153" width="7" height="7" transform="rotate(0,212.5,156.5)"/><rect x="209" y="216" width="7" height="7" transform="rotate(0,212.5,219.5)"/><rect x="209" y="223" width="7" height="7" transform="rotate(0,212.5,226.5)"/><rect x="209" y="251" width="7" height="7" transform="rotate(0,212.5,254.5)"/><rect x="209" y="258" width="7" height="7" transform="rotate(0,212.5,261.5)"/><rect x="209" y="286" width="7" height="7" transform="rotate(0,212.5,289.5)"/><rect x="216" y="20" width="7" height="7" transform="rotate(0,219.5,23.5)"/><rect x="216" y="41" width="7" height="7" transform="rotate(0,219.5,44.5)"/><rect x="216" y="48" width="7" height="7" transform="rotate(0,219.5,51.5)"/><rect x="216" y="69" width="7" height="7" transform="rotate(0,219.5,72.5)"/><rect x="216" y="83" width="7" height="7" transform="rotate(0,219.5,86.5)"/><rect x="216" y="104" width="7" height="7" transform="rotate(0,219.5,107.5)"/><rect x="216" y="111" width="7" height="7" transform="rotate(0,219.5,114.5)"/><rect x="216" y="118" width="7" height="7" transform="rotate(0,219.5,121.5)"/><rect x="216" y="125" width="7" height="7" transform="rotate(0,219.5,128.5)"/><rect x="216" y="139" width="7" height="7" transform="rotate(0,219.5,142.5)"/><rect x="216" y="181" width="7" height="7" transform="rotate(0,219.5,184.5)"/><rect x="216" y="188" width="7" height="7" transform="rotate(0,219.5,191.5)"/><rect x="216" y="195" width="7" height="7" transform="rotate(0,219.5,198.5)"/><rect x="216" y="209" width="7" height="7" transform="rotate(0,219.5,212.5)"/><rect x="216" y="216" width="7" height="7" transform="rotate(0,219.5,219.5)"/><rect x="216" y="223" width="7" height="7" transform="rotate(0,219.5,226.5)"/><rect x="216" y="237" width="7" height="7" transform="rotate(0,219.5,240.5)"/><rect x="216" y="265" width="7" height="7" transform="rotate(0,219.5,268.5)"/><rect x="216" y="272" width="7" height="7" transform="rotate(0,219.5,275.5)"/><rect x="216" y="286" width="7" height="7" transform="rotate(0,219.5,289.5)"/><rect x="223" y="27" width="7" height="7" transform="rotate(0,226.5,30.5)"/><rect x="223" y="41" width="7" height="7" transform="rotate(0,226.5,44.5)"/><rect x="223" y="55" width="7" height="7" transform="rotate(0,226.5,58.5)"/><rect x="223" y="62" width="7" height="7" transform="rotate(0,226.5,65.5)"/><rect x="223" y="76" width="7" height="7" transform="rotate(0,226.5,79.5)"/><rect x="223" y="90" width="7" height="7" transform="rotate(0,226.5,93.5)"/><rect x="223" y="97" width="7" height="7" transform="rotate(0,226.5,100.5)"/><rect x="223" y="104" width="7" height="7" transform="rotate(0,226.5,107.5)"/><rect x="223" y="125" width="7" height="7" transform="rotate(0,226.5,128.5)"/><rect x="223" y="139" width="7" height="7" transform="rotate(0,226.5,142.5)"/><rect x="223" y="146" width="7" height="7" transform="rotate(0,226.5,149.5)"/><rect x="223" y="153" width="7" height="7" transform="rotate(0,226.5,156.5)"/><rect x="223" y="160" width="7" height="7" transform="rotate(0,226.5,163.5)"/><rect x="223" y="174" width="7" height="7" transform="rotate(0,226.5,177.5)"/><rect x="223" y="188" width="7" height="7" transform="rotate(0,226.5,191.5)"/><rect x="223" y="195" width="7" height="7" transform="rotate(0,226.5,198.5)"/><rect x="223" y="202" width="7" height="7" transform="rotate(0,226.5,205.5)"/><rect x="223" y="209" width="7" height="7" transform="rotate(0,226.5,212.5)"/><rect x="223" y="223" width="7" height="7" transform="rotate(0,226.5,226.5)"/><rect x="223" y="230" width="7" height="7" transform="rotate(0,226.5,233.5)"/><rect x="223" y="237" width="7" height="7" transform="rotate(0,226.5,240.5)"/><rect x="223" y="258" width="7" height="7" transform="rotate(0,226.5,261.5)"/><rect x="223" y="265" width="7" height="7" transform="rotate(0,226.5,268.5)"/><rect x="223" y="279" width="7" height="7" transform="rotate(0,226.5,282.5)"/><rect x="230" y="6" width="7" height="7" transform="rotate(0,233.5,9.5)"/><rect x="230" y="13" width="7" height="7" transform="rotate(0,233.5,16.5)"/><rect x="230" y="20" width="7" height="7" transform="rotate(0,233.5,23.5)"/><rect x="230" y="27" width="7" height="7" transform="rotate(0,233.5,30.5)"/><rect x="230" y="34" width="7" height="7" transform="rotate(0,233.5,37.5)"/><rect x="230" y="48" width="7" height="7" transform="rotate(0,233.5,51.5)"/><rect x="230" y="55" width="7" height="7" transform="rotate(0,233.5,58.5)"/><rect x="230" y="62" width="7" height="7" transform="rotate(0,233.5,65.5)"/><rect x="230" y="76" width="7" height="7" transform="rotate(0,233.5,79.5)"/><rect x="230" y="90" width="7" height="7" transform="rotate(0,233.5,93.5)"/><rect x="230" y="111" width="7" height="7" transform="rotate(0,233.5,114.5)"/><rect x="230" y="118" width="7" height="7" transform="rotate(0,233.5,121.5)"/><rect x="230" y="125" width="7" height="7" transform="rotate(0,233.5,128.5)"/><rect x="230" y="139" width="7" height="7" transform="rotate(0,233.5,142.5)"/><rect x="230" y="146" width="7" height="7" transform="rotate(0,233.5,149.5)"/><rect x="230" y="153" width="7" height="7" transform="rotate(0,233.5,156.5)"/><rect x="230" y="160" width="7" height="7" transform="rotate(0,233.5,163.5)"/><rect x="230" y="167" width="7" height="7" transform="rotate(0,233.5,170.5)"/><rect x="230" y="209" width="7" height="7" transform="rotate(0,233.5,212.5)"/><rect x="230" y="230" width="7" height="7" transform="rotate(0,233.5,233.5)"/><rect x="230" y="237" width="7" height="7" transform="rotate(0,233.5,240.5)"/><rect x="230" y="244" width="7" height="7" transform="rotate(0,233.5,247.5)"/><rect x="230" y="251" width="7" height="7" transform="rotate(0,233.5,254.5)"/><rect x="230" y="258" width="7" height="7" transform="rotate(0,233.5,261.5)"/><rect x="230" y="265" width="7" height="7" transform="rotate(0,233.5,268.5)"/><rect x="237" y="62" width="7" height="7" transform="rotate(0,240.5,65.5)"/><rect x="237" y="69" width="7" height="7" transform="rotate(0,240.5,72.5)"/><rect x="237" y="83" width="7" height="7" transform="rotate(0,240.5,86.5)"/><rect x="237" y="118" width="7" height="7" transform="rotate(0,240.5,121.5)"/><rect x="237" y="125" width="7" height="7" transform="rotate(0,240.5,128.5)"/><rect x="237" y="132" width="7" height="7" transform="rotate(0,240.5,135.5)"/><rect x="237" y="167" width="7" height="7" transform="rotate(0,240.5,170.5)"/><rect x="237" y="181" width="7" height="7" transform="rotate(0,240.5,184.5)"/><rect x="237" y="195" width="7" height="7" transform="rotate(0,240.5,198.5)"/><rect x="237" y="202" width="7" height="7" transform="rotate(0,240.5,205.5)"/><rect x="237" y="209" width="7" height="7" transform="rotate(0,240.5,212.5)"/><rect x="237" y="216" width="7" height="7" transform="rotate(0,240.5,219.5)"/><rect x="237" y="223" width="7" height="7" transform="rotate(0,240.5,226.5)"/><rect x="237" y="230" width="7" height="7" transform="rotate(0,240.5,233.5)"/><rect x="237" y="258" width="7" height="7" transform="rotate(0,240.5,261.5)"/><rect x="237" y="265" width="7" height="7" transform="rotate(0,240.5,268.5)"/><rect x="237" y="286" width="7" height="7" transform="rotate(0,240.5,289.5)"/><rect x="244" y="76" width="7" height="7" transform="rotate(0,247.5,79.5)"/><rect x="244" y="97" width="7" height="7" transform="rotate(0,247.5,100.5)"/><rect x="244" y="104" width="7" height="7" transform="rotate(0,247.5,107.5)"/><rect x="244" y="118" width="7" height="7" transform="rotate(0,247.5,121.5)"/><rect x="244" y="139" width="7" height="7" transform="rotate(0,247.5,142.5)"/><rect x="244" y="160" width="7" height="7" transform="rotate(0,247.5,163.5)"/><rect x="244" y="167" width="7" height="7" transform="rotate(0,247.5,170.5)"/><rect x="244" y="195" width="7" height="7" transform="rotate(0,247.5,198.5)"/><rect x="244" y="216" width="7" height="7" transform="rotate(0,247.5,219.5)"/><rect x="244" y="223" width="7" height="7" transform="rotate(0,247.5,226.5)"/><rect x="244" y="230" width="7" height="7" transform="rotate(0,247.5,233.5)"/><rect x="244" y="244" width="7" height="7" transform="rotate(0,247.5,247.5)"/><rect x="244" y="258" width="7" height="7" transform="rotate(0,247.5,261.5)"/><rect x="244" y="265" width="7" height="7" transform="rotate(0,247.5,268.5)"/><rect x="244" y="279" width="7" height="7" transform="rotate(0,247.5,282.5)"/><rect x="244" y="286" width="7" height="7" transform="rotate(0,247.5,289.5)"/><rect x="251" y="76" width="7" height="7" transform="rotate(0,254.5,79.5)"/><rect x="251" y="83" width="7" height="7" transform="rotate(0,254.5,86.5)"/><rect x="251" y="132" width="7" height="7" transform="rotate(0,254.5,135.5)"/><rect x="251" y="139" width="7" height="7" transform="rotate(0,254.5,142.5)"/><rect x="251" y="146" width="7" height="7" transform="rotate(0,254.5,149.5)"/><rect x="251" y="160" width="7" height="7" transform="rotate(0,254.5,163.5)"/><rect x="251" y="167" width="7" height="7" transform="rotate(0,254.5,170.5)"/><rect x="251" y="174" width="7" height="7" transform="rotate(0,254.5,177.5)"/><rect x="251" y="188" width="7" height="7" transform="rotate(0,254.5,191.5)"/><rect x="251" y="195" width="7" height="7" transform="rotate(0,254.5,198.5)"/><rect x="251" y="202" width="7" height="7" transform="rotate(0,254.5,205.5)"/><rect x="251" y="223" width="7" height="7" transform="rotate(0,254.5,226.5)"/><rect x="251" y="230" width="7" height="7" transform="rotate(0,254.5,233.5)"/><rect x="251" y="258" width="7" height="7" transform="rotate(0,254.5,261.5)"/><rect x="251" y="265" width="7" height="7" transform="rotate(0,254.5,268.5)"/><rect x="251" y="286" width="7" height="7" transform="rotate(0,254.5,289.5)"/><rect x="258" y="62" width="7" height="7" transform="rotate(0,261.5,65.5)"/><rect x="258" y="97" width="7" height="7" transform="rotate(0,261.5,100.5)"/><rect x="258" y="104" width="7" height="7" transform="rotate(0,261.5,107.5)"/><rect x="258" y="111" width="7" height="7" transform="rotate(0,261.5,114.5)"/><rect x="258" y="125" width="7" height="7" transform="rotate(0,261.5,128.5)"/><rect x="258" y="139" width="7" height="7" transform="rotate(0,261.5,142.5)"/><rect x="258" y="146" width="7" height="7" transform="rotate(0,261.5,149.5)"/><rect x="258" y="153" width="7" height="7" transform="rotate(0,261.5,156.5)"/><rect x="258" y="160" width="7" height="7" transform="rotate(0,261.5,163.5)"/><rect x="258" y="181" width="7" height="7" transform="rotate(0,261.5,184.5)"/><rect x="258" y="188" width="7" height="7" transform="rotate(0,261.5,191.5)"/><rect x="258" y="195" width="7" height="7" transform="rotate(0,261.5,198.5)"/><rect x="258" y="223" width="7" height="7" transform="rotate(0,261.5,226.5)"/><rect x="258" y="230" width="7" height="7" transform="rotate(0,261.5,233.5)"/><rect x="258" y="237" width="7" height="7" transform="rotate(0,261.5,240.5)"/><rect x="258" y="244" width="7" height="7" transform="rotate(0,261.5,247.5)"/><rect x="258" y="251" width="7" height="7" transform="rotate(0,261.5,254.5)"/><rect x="258" y="258" width="7" height="7" transform="rotate(0,261.5,261.5)"/><rect x="258" y="265" width="7" height="7" transform="rotate(0,261.5,268.5)"/><rect x="258" y="279" width="7" height="7" transform="rotate(0,261.5,282.5)"/><rect x="258" y="286" width="7" height="7" transform="rotate(0,261.5,289.5)"/><rect x="265" y="90" width="7" height="7" transform="rotate(0,268.5,93.5)"/><rect x="265" y="118" width="7" height="7" transform="rotate(0,268.5,121.5)"/><rect x="265" y="125" width="7" height="7" transform="rotate(0,268.5,128.5)"/><rect x="265" y="132" width="7" height="7" transform="rotate(0,268.5,135.5)"/><rect x="265" y="139" width="7" height="7" transform="rotate(0,268.5,142.5)"/><rect x="265" y="153" width="7" height="7" transform="rotate(0,268.5,156.5)"/><rect x="265" y="160" width="7" height="7" transform="rotate(0,268.5,163.5)"/><rect x="265" y="167" width="7" height="7" transform="rotate(0,268.5,170.5)"/><rect x="265" y="181" width="7" height="7" transform="rotate(0,268.5,184.5)"/><rect x="265" y="195" width="7" height="7" transform="rotate(0,268.5,198.5)"/><rect x="265" y="202" width="7" height="7" transform="rotate(0,268.5,205.5)"/><rect x="265" y="216" width="7" height="7" transform="rotate(0,268.5,219.5)"/><rect x="265" y="223" width="7" height="7" transform="rotate(0,268.5,226.5)"/><rect x="265" y="230" width="7" height="7" transform="rotate(0,268.5,233.5)"/><rect x="265" y="251" width="7" height="7" transform="rotate(0,268.5,254.5)"/><rect x="265" y="279" width="7" height="7" transform="rotate(0,268.5,282.5)"/><rect x="265" y="286" width="7" height="7" transform="rotate(0,268.5,289.5)"/><rect x="272" y="69" width="7" height="7" transform="rotate(0,275.5,72.5)"/><rect x="272" y="76" width="7" height="7" transform="rotate(0,275.5,79.5)"/><rect x="272" y="83" width="7" height="7" transform="rotate(0,275.5,86.5)"/><rect x="272" y="97" width="7" height="7" transform="rotate(0,275.5,100.5)"/><rect x="272" y="104" width="7" height="7" transform="rotate(0,275.5,107.5)"/><rect x="272" y="111" width="7" height="7" transform="rotate(0,275.5,114.5)"/><rect x="272" y="118" width="7" height="7" transform="rotate(0,275.5,121.5)"/><rect x="272" y="125" width="7" height="7" transform="rotate(0,275.5,128.5)"/><rect x="272" y="132" width="7" height="7" transform="rotate(0,275.5,135.5)"/><rect x="272" y="153" width="7" height="7" transform="rotate(0,275.5,156.5)"/><rect x="272" y="160" width="7" height="7" transform="rotate(0,275.5,163.5)"/><rect x="272" y="167" width="7" height="7" transform="rotate(0,275.5,170.5)"/><rect x="272" y="174" width="7" height="7" transform="rotate(0,275.5,177.5)"/><rect x="272" y="181" width="7" height="7" transform="rotate(0,275.5,184.5)"/><rect x="272" y="195" width="7" height="7" transform="rotate(0,275.5,198.5)"/><rect x="272" y="202" width="7" height="7" transform="rotate(0,275.5,205.5)"/><rect x="272" y="209" width="7" height="7" transform="rotate(0,275.5,212.5)"/><rect x="272" y="216" width="7" height="7" transform="rotate(0,275.5,219.5)"/><rect x="272" y="223" width="7" height="7" transform="rotate(0,275.5,226.5)"/><rect x="272" y="230" width="7" height="7" transform="rotate(0,275.5,233.5)"/><rect x="272" y="237" width="7" height="7" transform="rotate(0,275.5,240.5)"/><rect x="272" y="265" width="7" height="7" transform="rotate(0,275.5,268.5)"/><rect x="272" y="279" width="7" height="7" transform="rotate(0,275.5,282.5)"/><rect x="272" y="286" width="7" height="7" transform="rotate(0,275.5,289.5)"/><rect x="279" y="62" width="7" height="7" transform="rotate(0,282.5,65.5)"/><rect x="279" y="90" width="7" height="7" transform="rotate(0,282.5,93.5)"/><rect x="279" y="118" width="7" height="7" transform="rotate(0,282.5,121.5)"/><rect x="279" y="125" width="7" height="7" transform="rotate(0,282.5,128.5)"/><rect x="279" y="132" width="7" height="7" transform="rotate(0,282.5,135.5)"/><rect x="279" y="139" width="7" height="7" transform="rotate(0,282.5,142.5)"/><rect x="279" y="153" width="7" height="7" transform="rotate(0,282.5,156.5)"/><rect x="279" y="167" width="7" height="7" transform="rotate(0,282.5,170.5)"/><rect x="279" y="174" width="7" height="7" transform="rotate(0,282.5,177.5)"/><rect x="279" y="188" width="7" height="7" transform="rotate(0,282.5,191.5)"/><rect x="279" y="209" width="7" height="7" transform="rotate(0,282.5,212.5)"/><rect x="279" y="230" width="7" height="7" transform="rotate(0,282.5,233.5)"/><rect x="279" y="244" width="7" height="7" transform="rotate(0,282.5,247.5)"/><rect x="279" y="251" width="7" height="7" transform="rotate(0,282.5,254.5)"/><rect x="279" y="265" width="7" height="7" transform="rotate(0,282.5,268.5)"/><rect x="279" y="279" width="7" height="7" transform="rotate(0,282.5,282.5)"/><rect x="279" y="286" width="7" height="7" transform="rotate(0,282.5,289.5)"/><rect x="286" y="90" width="7" height="7" transform="rotate(0,289.5,93.5)"/><rect x="286" y="104" width="7" height="7" transform="rotate(0,289.5,107.5)"/><rect x="286" y="111" width="7" height="7" transform="rotate(0,289.5,114.5)"/><rect x="286" y="125" width="7" height="7" transform="rotate(0,289.5,128.5)"/><rect x="286" y="139" width="7" height="7" transform="rotate(0,289.5,142.5)"/><rect x="286" y="153" width="7" height="7" transform="rotate(0,289.5,156.5)"/><rect x="286" y="160" width="7" height="7" transform="rotate(0,289.5,163.5)"/><rect x="286" y="174" width="7" height="7" transform="rotate(0,289.5,177.5)"/><rect x="286" y="195" width="7" height="7" transform="rotate(0,289.5,198.5)"/><rect x="286" y="209" width="7" height="7" transform="rotate(0,289.5,212.5)"/><rect x="286" y="230" width="7" height="7" transform="rotate(0,289.5,233.5)"/><rect x="286" y="251" width="7" height="7" transform="rotate(0,289.5,254.5)"/><rect x="286" y="258" width="7" height="7" transform="rotate(0,289.5,261.5)"/><rect x="286" y="265" width="7" height="7" transform="rotate(0,289.5,268.5)"/><rect x="286" y="279" width="7" height="7" transform="rotate(0,289.5,282.5)"/><path clip-rule="evenodd" d="M 6 6v 49h 49v -49zM 13 13h 35v 35h -35z" transform="rotate(0,30.5,30.5)"/><rect x="20" y="20" width="7" height="7" transform="rotate(0,23.5,23.5)"/><rect x="20" y="27" width="7" height="7" transform="rotate(0,23.5,30.5)"/><rect x="20" y="34" width="7" height="7" transform="rotate(0,23.5,37.5)"/><rect x="27" y="20" width="7" height="7" transform="rotate(0,30.5,23.5)"/><rect x="27" y="27" width="7" height="7" transform="rotate(0,30.5,30.5)"/><rect x="27" y="34" width="7" height="7" transform="rotate(0,30.5,37.5)"/><rect x="34" y="20" width="7" height="7" transform="rotate(0,37.5,23.5)"/><rect x="34" y="27" width="7" height="7" transform="rotate(0,37.5,30.5)"/><rect x="34" y="34" width="7" height="7" transform="rotate(0,37.5,37.5)"/><path clip-rule="evenodd" d="M 244 6v 49h 49v -49zM 251 13h 35v 35h -35z" transform="rotate(90,268.5,30.5)"/><rect x="258" y="20" width="7" height="7" transform="rotate(0,261.5,23.5)"/><rect x="258" y="27" width="7" height="7" transform="rotate(0,261.5,30.5)"/><rect x="258" y="34" width="7" height="7" transform="rotate(0,261.5,37.5)"/><rect x="265" y="20" width="7" height="7" transform="rotate(0,268.5,23.5)"/><rect x="265" y="27" width="7" height="7" transform="rotate(0,268.5,30.5)"/><rect x="265" y="34" width="7" height="7" transform="rotate(0,268.5,37.5)"/><rect x="272" y="20" width="7" height="7" transform="rotate(0,275.5,23.5)"/><rect x="272" y="27" width="7" height="7" transform="rotate(0,275.5,30.5)"/><rect x="272" y="34" width="7" height="7" transform="rotate(0,275.5,37.5)"/><path clip-rule="evenodd" d="M 6 244v 49h 49v -49zM 13 251h 35v 35h -35z" transform="rotate(-90,30.5,268.5)"/><rect x="20" y="258" width="7" height="7" transform="rotate(0,23.5,261.5)"/><rect x="20" y="265" width="7" height="7" transform="rotate(0,23.5,268.5)"/><rect x="20" y="272" width="7" height="7" transform="rotate(0,23.5,275.5)"/><rect x="27" y="258" width="7" height="7" transform="rotate(0,30.5,261.5)"/><rect x="27" y="265" width="7" height="7" transform="rotate(0,30.5,268.5)"/><rect x="27" y="272" width="7" height="7" transform="rotate(0,30.5,275.5)"/><rect x="34" y="258" width="7" height="7" transform="rotate(0,37.5,261.5)"/><rect x="34" y="265" width="7" height="7" transform="rotate(0,37.5,268.5)"/><rect x="34" y="272" width="7" height="7" transform="rotate(0,37.5,275.5)"/></clipPath></defs><rect x="0" y="0" height="300" width="300" clip-path="url('#clip-path-background-color')" fill="#fff"/><rect x="0" y="0" height="300" width="300" clip-path="url('#clip-path-dot-color')" fill="#000000"/></svg>